<?xml version="1.0" encoding="UTF-8" standalone="no"?>
<svg
   xmlns:dc="http://purl.org/dc/elements/1.1/"
   xmlns:cc="http://creativecommons.org/ns#"
   xmlns:rdf="http://www.w3.org/1999/02/22-rdf-syntax-ns#"
   xmlns:svg="http://www.w3.org/2000/svg"
   xmlns="http://www.w3.org/2000/svg"
   xmlns:sodipodi="http://sodipodi.sourceforge.net/DTD/sodipodi-0.dtd"
   xmlns:inkscape="http://www.inkscape.org/namespaces/inkscape"
   role="img"
   viewBox="0 0 24 24"
   version="1.1"
   id="svg6"
   sodipodi:docname="microsoftacademic.svg"
   inkscape:version="0.92.5 (2060ec1f9f, 2020-04-08)">
  <metadata
     id="metadata12">
    <rdf:RDF>
      <cc:Work
         rdf:about="">
        <dc:format>image/svg+xml</dc:format>
        <dc:type
           rdf:resource="http://purl.org/dc/dcmitype/StillImage" />
      </cc:Work>
    </rdf:RDF>
  </metadata>
  <defs
     id="defs10">
    <filter
       style="color-interpolation-filters:sRGB;"
       inkscape:label="Duochrome"
       id="filter850">
      <feColorMatrix
         type="luminanceToAlpha"
         result="colormatrix1"
         id="feColorMatrix830" />
      <feFlood
         flood-opacity="1"
         flood-color="rgb(81,81,245)"
         result="flood1"
         id="feFlood832" />
      <feComposite
         in2="colormatrix1"
         operator="out"
         result="composite1"
         id="feComposite834" />
      <feFlood
         flood-opacity="1"
         flood-color="rgb(255,255,0)"
         result="flood2"
         id="feFlood836" />
      <feComposite
         in2="colormatrix1"
         result="composite2"
         operator="in"
         id="feComposite838" />
      <feComposite
         in="composite2"
         in2="composite1"
         k2="1"
         k3="1"
         operator="arithmetic"
         result="composite3"
         id="feComposite840" />
      <feColorMatrix
         in="composite3"
         type="matrix"
         values="2 -1 0 0 0 0 2 -1 0 0 -1 0 2 0 0 0 0 0 1 0 "
         result="colormatrix2"
         id="feColorMatrix842" />
      <feComposite
         in="colormatrix2"
         in2="composite3"
         operator="arithmetic"
         k2="0"
         result="composite4"
         id="feComposite844" />
      <feBlend
         in="composite4"
         in2="composite3"
         mode="normal"
         result="blend"
         id="feBlend846" />
      <feComposite
         in2="SourceGraphic"
         operator="in"
         id="feComposite848" />
    </filter>
  </defs>
  <sodipodi:namedview
     pagecolor="#ffffff"
     bordercolor="#666666"
     borderopacity="1"
     objecttolerance="10"
     gridtolerance="10"
     guidetolerance="10"
     inkscape:pageopacity="0"
     inkscape:pageshadow="2"
     inkscape:window-width="1600"
     inkscape:window-height="845"
     id="namedview8"
     showgrid="false"
     inkscape:zoom="22.627417"
     inkscape:cx="19.016323"
     inkscape:cy="11.907044"
     inkscape:window-x="0"
     inkscape:window-y="0"
     inkscape:window-maximized="1"
     inkscape:current-layer="svg6" />
  <title
     id="title2">Microsoft Academic icon</title>
  <path
     d="M19.056 23.992c-4.018-2.966-10.695-8.022-19-9.125l3.55-3.472c10.19 3.935 15.45 12.597 15.45 12.597zM.48 18.437l2.77-2.217C11.334 18.208 18.19 24 18.19 24 15.303 22.37 7.113 18.36.48 18.437zm2.543-8.042l9.25-8.23 1.992 1.153L9.78 8.41c4.83 3.983 10.19 8.22 9.71 15.127C14.734 16.799 9.127 11.98 3.024 10.395zm7.907-2.131L18.035 0c3.791 3.1 5.91 7.913 5.91 10.513-.309 3.322-3.558 11.35-3.858 12.236-.225-2.007 1.434-5.56-9.157-14.485z"
     id="path4"
     style="filter:url(#filter850);fill:#212529;fill-opacity:1" />
  <path
     style="fill:#212529;fill-opacity:1;stroke:none;stroke-width:0.04419417;stroke-opacity:1"
     d="m 20.087967,21.621018 c -0.03131,-1.037203 -0.100265,-1.65985 -0.247802,-2.237695 -0.609803,-2.38836 -2.382688,-4.976069 -5.531889,-8.074363 -0.929425,-0.914402 -1.991168,-1.8889711 -2.853789,-2.6194809 l -0.495188,-0.4193497 0.09744,-0.1212697 c 0.05359,-0.066698 1.646802,-1.9224448 3.540466,-4.1238813 l 3.443025,-4.00261174 0.269285,0.22811788 c 0.882971,0.74798574 2.08936,2.09668226 2.867284,3.20551316 1.610489,2.2955455 2.726472,5.1222535 2.727222,6.9078663 6.23e-4,1.487797 -1.107755,5.167238 -3.304528,10.969892 l -0.481778,1.27259 z"
     id="path852"
     inkscape:connector-curvature="0" />
  <path
     style="fill:#212529;fill-opacity:1;stroke:none;stroke-width:0.04419417;stroke-opacity:1"
     d="M 19.131228,23.006771 C 17.865676,21.229279 16.19221,19.231906 14.669178,17.681067 12.081537,15.046182 9.6082499,13.19522 6.8673445,11.842319 5.5463941,11.190303 4.577757,10.813218 3.2641123,10.439603 l -0.2002809,-0.05696 4.6064925,-4.0981296 4.6064931,-4.09813 0.96338,0.5577137 c 0.529859,0.3067425 0.97033,0.5635461 0.978824,0.5706746 0.01234,0.010353 -3.949187,4.5343324 -4.3562104,4.9747026 L 9.7550961,8.4060119 10.940774,9.3932823 c 1.860345,1.5490417 2.51923,2.1409527 3.705794,3.3291137 1.896396,1.898947 2.942847,3.314959 3.778096,5.112354 0.695122,1.495852 1.007509,2.844897 1.047703,4.524512 0.0128,0.53475 0.01585,1.003946 0.0068,1.042659 -0.01033,0.04414 -0.140078,-0.103216 -0.347931,-0.39515 z"
     id="path854"
     inkscape:connector-curvature="0" />
  <path
     style="fill:#212529;fill-opacity:1;stroke:none;stroke-width:0.04419417;stroke-opacity:1"
     d="M 18.177204,23.322421 C 15.688555,21.490484 13.757905,20.200068 11.922573,19.141926 8.2947946,17.050367 4.8421642,15.713847 1.409364,15.072243 0.95968832,14.988197 0.48164334,14.906174 0.34704192,14.889971 L 0.10231201,14.860511 1.1425024,13.836916 C 1.714607,13.273939 2.503215,12.498555 2.8949643,12.11384 L 3.6072359,11.414359 4.17663,11.645575 c 4.7065729,1.911211 9.312754,5.370972 12.881058,9.675124 0.755422,0.911204 1.891322,2.450852 1.843464,2.498711 -0.01138,0.01138 -0.337157,-0.212265 -0.723948,-0.496989 z"
     id="path856"
     inkscape:connector-curvature="0" />
  <path
     style="fill:#212529;fill-opacity:1;stroke:none;stroke-width:0.04419417;stroke-opacity:1"
     d="m 17.692707,23.711115 c -0.07279,-0.06981 -1.73104,-0.910776 -2.583149,-1.310021 C 11.204474,20.571416 7.5531223,19.337587 4.3924708,18.77968 3.245694,18.577255 2.8293638,18.53166 1.0464391,18.413232 L 0.57302883,18.381787 1.915933,17.308685 3.2588372,16.235582 3.9803336,16.434194 c 3.4375099,0.946271 7.2082604,2.733674 10.8423484,5.139466 1.226648,0.81205 2.98272,2.082582 2.98272,2.158021 0,0.03402 -0.06888,0.02145 -0.112695,-0.02057 z"
     id="path858"
     inkscape:connector-curvature="0" />
</svg>
